<svg width="168" height="26" viewBox="0 0 168 26" fill="none" xmlns="http://www.w3.org/2000/svg">
<g id="Layer_x0020_1">
<g id="_1941578550432">
<g id="Group">
<path id="Vector" fill-rule="evenodd" clip-rule="evenodd" d="M0.345703 25.1118C1.73296 25.3534 10.0254 25.1763 12.1412 25.1763C18.6061 25.1763 17.7388 26.3354 21.0972 20.5167C21.9637 19.0152 23.328 16.8327 24.065 15.5701C25.0813 13.8287 32.4211 1.41717 32.6512 0.618118C30.6843 0.568892 28.6964 0.602906 26.7275 0.607697C24.7169 0.612488 23.98 2.26623 22.9088 4.1085C20.7212 7.87034 19.1323 10.6948 17.119 14.0146C14.9745 17.5506 9.79513 15.0886 6.58454 15.8889C5.08817 16.2618 3.92962 18.7852 3.17704 20.0882C2.47973 21.2951 0.762987 23.8864 0.345703 25.1118Z" fill="#FF9600"/>
<path id="Vector_2" fill-rule="evenodd" clip-rule="evenodd" d="M27.3996 25.1503C29.3217 25.1356 29.9166 24.0613 30.9575 22.2522C31.9804 20.4741 32.6466 19.376 33.4913 17.9361C34.8834 15.5628 37.4202 10.407 38.9588 10.0454C41.4049 9.47047 46.9155 10.9045 48.6951 9.22008C49.4781 8.47942 53.5807 1.44842 53.8041 0.622114C49.9242 0.533304 46.0068 0.615705 42.1221 0.615705C35.8156 0.615705 36.4753 -0.668065 33.1581 5.14181C31.611 7.85128 21.9939 23.8481 21.5664 25.1503H27.3996Z" fill="#001400"/>
<path id="Vector_3" fill-rule="evenodd" clip-rule="evenodd" d="M13.8806 11.6974C16.4709 11.6987 16.7777 10.2352 18.6264 7.05034C19.3262 5.84442 22.0243 1.74686 22.2518 0.597656C20.494 0.651194 18.7184 0.620414 16.9589 0.615084C14.7148 0.608137 14.4342 0.914154 13.2555 2.94284C12.6475 3.98935 8.43294 11.042 8.24609 11.6928L13.8806 11.6974Z" fill="#FF9600"/>
<path id="Vector_4" fill-rule="evenodd" clip-rule="evenodd" d="M37.8386 25.1764C39.3026 25.1673 39.8287 24.6259 40.6005 23.401L45.9808 14.0511C44.259 13.9952 42.5088 14.0487 40.7827 14.0436C37.3803 14.0337 37.5771 15.5212 34.4342 20.6653C33.9669 21.4303 33.5737 22.0445 33.1447 22.7863L32.1416 24.4935C31.9201 24.9713 32.0592 24.604 31.8984 25.1735L37.8386 25.1764Z" fill="#001400"/>
</g>
<g id="Group_2">
<path id="Vector_5" d="M90.8876 0.807323V24.9246C90.8876 25.0077 90.8546 25.0873 90.796 25.1461C90.7372 25.2046 90.6577 25.2377 90.5747 25.2377H85.4803C85.4128 25.2374 85.3473 25.2155 85.2933 25.1752C85.2393 25.1351 85.1995 25.0784 85.1801 25.0138L82.5111 16.043C82.4887 15.9722 82.4418 15.9116 82.3788 15.8721C82.316 15.8326 82.2409 15.8169 82.1675 15.8276C82.0939 15.8383 82.0265 15.8749 81.9776 15.9306C81.9286 15.9865 81.901 16.0579 81.8996 16.1323V24.9246C81.8999 24.9657 81.892 25.0064 81.8765 25.0443C81.861 25.0824 81.8383 25.1169 81.8092 25.1459C81.7802 25.175 81.746 25.1981 81.7081 25.2139C81.6701 25.2295 81.6296 25.2377 81.5885 25.2377H76.8344C76.7933 25.2377 76.7526 25.2295 76.7146 25.2139C76.6768 25.1981 76.6422 25.1751 76.6131 25.1461C76.5841 25.117 76.5611 25.0825 76.5453 25.0446C76.5296 25.0065 76.5215 24.9658 76.5215 24.9246V0.807323C76.5215 0.766242 76.5296 0.725699 76.5454 0.687792C76.5611 0.649884 76.5842 0.615633 76.6133 0.586588C76.6423 0.557724 76.6768 0.534784 76.7147 0.519334C76.7528 0.503764 76.7935 0.495859 76.8344 0.496099H81.6742C81.7397 0.496219 81.8037 0.517123 81.8571 0.55557C81.9102 0.594196 81.9499 0.64845 81.9707 0.710851L84.898 9.75443C84.9216 9.8245 84.9693 9.88397 85.0326 9.92223C85.0958 9.96062 85.1705 9.97523 85.2437 9.96373C85.3165 9.95211 85.3831 9.9151 85.4315 9.85917C85.4799 9.80318 85.5069 9.73186 85.5076 9.65796V0.807323C85.5073 0.766362 85.5154 0.725822 85.5308 0.687915C85.5463 0.650127 85.5693 0.61569 85.5982 0.586705C85.6272 0.557841 85.6615 0.534904 85.6994 0.519334C85.7372 0.503764 85.7777 0.495859 85.8187 0.496099H90.5747C90.6157 0.495859 90.6563 0.503764 90.6942 0.519334C90.7322 0.534784 90.7668 0.557724 90.7958 0.586588C90.8249 0.615633 90.848 0.649884 90.8638 0.687792C90.8794 0.725699 90.8876 0.766242 90.8876 0.807323Z" fill="#FF9600"/>
<path id="Vector_6" d="M115.231 11.8134L110.172 8.27046C110.133 8.24261 110.101 8.20572 110.079 8.16285C110.057 8.11997 110.045 8.07235 110.046 8.02403V6.42035C110.046 5.60506 109.972 5.08095 109.827 4.84793C109.745 4.73271 109.634 4.6409 109.506 4.58174C109.378 4.52263 109.237 4.49814 109.096 4.51078C108.928 4.50335 108.761 4.54173 108.614 4.62204C108.466 4.7024 108.342 4.82152 108.257 4.96674C108.068 5.27084 107.973 5.73082 107.971 6.34693C107.971 7.14011 108.078 7.737 108.291 8.13769C108.505 8.53833 109.084 9.02226 110.03 9.5895C112.765 11.22 114.488 12.5595 115.198 13.6077C115.909 14.6559 116.264 16.3446 116.266 18.6739C116.266 20.3652 116.068 21.612 115.673 22.4144C115.278 23.217 114.516 23.8895 113.388 24.4322C112.256 24.9692 110.942 25.2377 109.446 25.2377C107.801 25.2377 106.398 24.925 105.235 24.2995C104.073 23.674 103.311 22.8803 102.949 21.9183C102.572 20.9033 102.412 20.1327 102.408 17.7952C102.408 16.4396 102.421 14.8952 102.462 13.1901C102.464 13.1372 102.479 13.0857 102.507 13.0407C102.534 12.9957 102.574 12.9589 102.62 12.9338C102.666 12.9089 102.718 12.8966 102.771 12.8984C102.824 12.9001 102.875 12.9158 102.919 12.9438L107.978 16.1514C108.021 16.1784 108.056 16.2158 108.08 16.2601C108.105 16.3044 108.117 16.3541 108.118 16.4047V19.123C108.118 20.014 108.198 20.5853 108.359 20.8404C108.521 21.0954 108.804 21.2212 109.213 21.2212C109.394 21.2315 109.575 21.1917 109.736 21.1065C109.897 21.0212 110.031 20.8937 110.125 20.7373C110.326 20.4136 110.425 19.9342 110.424 19.2996C110.424 17.9019 110.235 16.9869 109.856 16.5548C109.477 16.1228 108.518 15.4066 106.979 14.406C105.45 13.3892 104.438 12.6509 103.942 12.1908C103.395 11.6545 102.974 11.0029 102.709 10.283C102.382 9.46776 102.219 8.43059 102.219 7.17161C102.219 5.35229 102.451 4.02223 102.914 3.18131C103.378 2.34046 104.125 1.68231 105.155 1.20718C106.188 0.734321 107.434 0.497232 108.893 0.496094C110.489 0.496094 111.849 0.755281 112.975 1.27353C114.1 1.7919 114.844 2.44232 115.207 3.22497C115.661 4.20512 115.768 4.99124 115.754 7.24312C115.742 8.99023 115.72 10.456 115.699 11.5776C115.698 11.6317 115.682 11.6845 115.653 11.7304C115.625 11.7762 115.584 11.8132 115.536 11.8374C115.488 11.8618 115.434 11.8723 115.38 11.8682C115.327 11.8638 115.275 11.845 115.231 11.8134Z" fill="#001400"/>
<path id="Vector_7" d="M132.546 14.8981C132.546 17.2849 132.489 18.9732 132.373 19.9628C132.262 20.9702 131.885 21.9293 131.281 22.7403C130.677 23.5515 129.868 24.1852 128.939 24.5755C127.83 25.0365 126.638 25.2612 125.439 25.2357C124.274 25.2541 123.118 25.0422 122.034 24.6123C121.094 24.2339 120.272 23.6095 119.653 22.8035C119.034 21.9976 118.64 21.0398 118.514 20.0293C118.398 19.0513 118.34 17.3396 118.34 14.8945V10.8357C118.34 8.44994 118.398 6.76164 118.514 5.77071C118.624 4.76349 119.001 3.80455 119.605 2.99339C120.209 2.18224 121.018 1.54853 121.948 1.15825C123.056 0.697134 124.247 0.472381 125.446 0.498072C126.61 0.479448 127.767 0.691264 128.85 1.1216C129.791 1.50002 130.613 2.12469 131.233 2.93087C131.852 3.73705 132.246 4.69535 132.373 5.70622C132.489 6.68421 132.546 8.39521 132.546 10.8391V14.8981ZM126.409 7.09461C126.409 5.99085 126.351 5.28468 126.236 4.97603C126.12 4.66756 125.869 4.51335 125.484 4.51335C125.34 4.50664 125.196 4.5376 125.067 4.603C124.938 4.66857 124.828 4.76631 124.748 4.88704C124.578 5.13742 124.493 5.87318 124.493 7.09461V18.185C124.493 19.5625 124.55 20.413 124.666 20.7366C124.782 21.0603 125.042 21.2215 125.446 21.2204C125.623 21.2382 125.801 21.1919 125.948 21.0898C126.095 20.9879 126.201 20.8366 126.248 20.6633C126.363 20.2908 126.421 19.4059 126.421 18.0086L126.409 7.09461Z" fill="#001400"/>
<path id="Vector_8" d="M149.167 0.550793C149.248 0.550793 149.325 0.582717 149.382 0.639668C149.439 0.69668 149.471 0.773928 149.471 0.854415V16.6908C149.471 18.5203 149.412 19.8057 149.293 20.547C149.128 21.3828 148.762 22.1659 148.228 22.8292C147.628 23.6194 146.827 24.2333 145.908 24.6056C144.828 25.0305 143.675 25.236 142.515 25.2095C141.207 25.2372 139.907 24.9954 138.697 24.499C137.592 24.0254 136.766 23.4036 136.219 22.634C135.694 21.9226 135.361 21.0885 135.251 20.2113C135.151 19.361 135.102 17.5731 135.102 14.8472V0.854415C135.102 0.814471 135.109 0.774826 135.124 0.737936C135.139 0.700927 135.162 0.667451 135.19 0.639125C135.218 0.610918 135.252 0.588585 135.289 0.573315C135.326 0.558223 135.365 0.550434 135.405 0.550793H141.077C141.117 0.550434 141.156 0.558223 141.193 0.573315C141.23 0.588585 141.264 0.610918 141.292 0.639125C141.32 0.667451 141.343 0.700927 141.358 0.737936C141.373 0.774826 141.381 0.814471 141.38 0.854415V18.6589C141.38 19.714 141.44 20.3877 141.558 20.6801C141.608 20.8202 141.704 20.9392 141.829 21.019C141.954 21.0988 142.103 21.1347 142.251 21.1206C142.649 21.1206 142.906 20.959 143.02 20.6358C143.133 20.3125 143.198 19.5505 143.198 18.3463V0.854415C143.197 0.814471 143.205 0.774826 143.22 0.737936C143.235 0.700927 143.258 0.667451 143.286 0.639125C143.314 0.610918 143.348 0.588585 143.385 0.573315C143.422 0.558223 143.461 0.550434 143.501 0.550793H149.167Z" fill="#001400"/>
<path id="Vector_9" d="M167.133 0.905534L163.63 11.5724C163.612 11.6317 163.612 11.695 163.63 11.7543L167.495 24.8355C167.508 24.8822 167.511 24.9314 167.501 24.9792C167.493 25.0271 167.474 25.0722 167.444 25.1112C167.415 25.1501 167.379 25.1817 167.335 25.2038C167.292 25.2256 167.244 25.2373 167.197 25.2376H161.249C161.18 25.2375 161.112 25.214 161.058 25.1707C161.003 25.1274 160.965 25.0672 160.949 24.9992L159.029 17.136C159.009 17.0633 158.964 17.0002 158.902 16.9581C158.84 16.9162 158.765 16.898 158.691 16.9071C158.616 16.916 158.548 16.9517 158.498 17.0075C158.447 17.0633 158.419 17.1353 158.417 17.2107V24.9248C158.417 25.0076 158.385 25.0873 158.326 25.1461C158.268 25.2046 158.189 25.2376 158.106 25.2376H152.334C152.252 25.2376 152.173 25.2046 152.114 25.1461C152.056 25.0873 152.023 25.0076 152.023 24.9248V0.80726C152.023 0.766299 152.031 0.725636 152.047 0.687729C152.063 0.649941 152.086 0.615567 152.115 0.586642C152.144 0.557658 152.178 0.534841 152.215 0.519271C152.253 0.503701 152.294 0.495919 152.334 0.496159H158.106C158.147 0.495919 158.187 0.503701 158.225 0.519271C158.263 0.534841 158.297 0.557658 158.326 0.586642C158.355 0.615567 158.378 0.649941 158.393 0.687729C158.409 0.725636 158.417 0.766299 158.417 0.80726V7.96642C158.418 8.04068 158.446 8.11212 158.495 8.16793C158.543 8.22381 158.61 8.26028 158.683 8.27112C158.756 8.28184 158.831 8.26603 158.893 8.2265C158.956 8.18704 159.003 8.12643 159.025 8.05559L161.195 0.718093C161.214 0.653895 161.254 0.597725 161.308 0.557781C161.361 0.517838 161.426 0.496278 161.493 0.496159H166.831C166.88 0.495141 166.93 0.5061 166.975 0.528078C167.019 0.550116 167.058 0.582452 167.086 0.622515C167.117 0.662579 167.136 0.709172 167.144 0.758399C167.152 0.807565 167.149 0.857984 167.133 0.905534Z" fill="#001400"/>
<path id="Vector_10" d="M99.5051 25.2694H93.7586C93.5824 25.2694 93.4395 25.1265 93.4395 24.9501V8.93506C93.4395 8.80792 93.515 8.69282 93.6316 8.64216L99.3781 6.14881C99.5889 6.05731 99.8243 6.21188 99.8243 6.4416V24.9501C99.8243 25.1265 99.6815 25.2694 99.5051 25.2694Z" fill="#FF9600"/>
<path id="Vector_11" d="M93.7586 0.527344H99.5051C99.6815 0.527344 99.8243 0.670293 99.8243 0.846656V4.59508C99.8243 4.72258 99.7484 4.83786 99.6312 4.88828L93.8848 7.35923C93.674 7.44983 93.4395 7.29533 93.4395 7.06596V0.846656C93.4395 0.670293 93.5824 0.527344 93.7586 0.527344Z" fill="#001400"/>
<path id="Vector_12" d="M73.6599 0.550793C73.6999 0.550434 73.7395 0.558223 73.7764 0.573315C73.8134 0.588585 73.8469 0.610918 73.8751 0.639125C73.9034 0.667451 73.9258 0.700927 73.9409 0.737936C73.9561 0.774826 73.9639 0.814471 73.9636 0.854415V16.6908C73.9636 18.5203 73.9043 19.8057 73.786 20.547C73.6214 21.383 73.2556 22.1664 72.7203 22.8292C72.1216 23.6198 71.32 24.2337 70.4007 24.6056C69.3249 25.0258 68.1767 25.228 67.0223 25.2005C65.7141 25.2283 64.4141 24.9865 63.2036 24.49C62.0987 24.0164 61.2699 23.3949 60.7168 22.6251C60.1916 21.9141 59.8582 21.0797 59.7488 20.2024C59.6495 19.3522 59.5996 17.5641 59.5996 14.8384V0.854415C59.5995 0.814471 59.6072 0.774826 59.6222 0.737936C59.6375 0.700927 59.6599 0.667451 59.6881 0.639125C59.7163 0.610918 59.75 0.588585 59.7869 0.573315C59.8239 0.558223 59.8635 0.550434 59.9033 0.550793H65.5748C65.6147 0.550434 65.6543 0.558223 65.6913 0.573315C65.7282 0.588585 65.7617 0.610918 65.7899 0.639125C65.8183 0.667451 65.8406 0.700927 65.8559 0.737936C65.871 0.774826 65.8787 0.814471 65.8784 0.854415V18.6589C65.8784 19.714 65.9376 20.3877 66.0561 20.6801C66.1063 20.8202 66.2016 20.9392 66.3271 21.019C66.4523 21.0988 66.6009 21.1347 66.7489 21.1206C67.1466 21.1206 67.4042 20.959 67.5179 20.6358C67.6315 20.3125 67.6956 19.5505 67.6956 18.3463V0.854415C67.6952 0.814471 67.7029 0.774826 67.7182 0.737936C67.7333 0.700927 67.7557 0.667451 67.784 0.639125C67.8122 0.610918 67.8457 0.588585 67.8827 0.573315C67.9196 0.558223 67.9592 0.550434 67.9992 0.550793H73.6599Z" fill="#FF9600"/>
</g>
</g>
</g>
</svg>
