<svg width="178" height="32" viewBox="0 0 178 32" fill="none" xmlns="http://www.w3.org/2000/svg">
<path fill-rule="evenodd" clip-rule="evenodd" d="M5.32306 28.1801C6.70426 28.4206 14.9606 28.2443 17.0671 28.2443C23.5038 28.2443 22.6403 29.3983 25.9841 23.605C26.8467 22.1101 28.2052 19.937 28.9389 18.68C29.9507 16.9462 37.2586 4.58881 37.4876 3.79324C35.5294 3.74422 33.5501 3.77809 31.5898 3.78286C29.588 3.78763 28.8542 5.43416 27.7877 7.26839C25.6096 11.0138 24.0277 13.826 22.0232 17.1312C19.8881 20.6519 14.7313 18.2006 11.5347 18.9974C10.0448 19.3687 8.89135 21.881 8.14205 23.1784C7.44778 24.38 5.73852 26.96 5.32306 28.1801Z" fill="#FF9600"/>
<path fill-rule="evenodd" clip-rule="evenodd" d="M32.2582 28.2182C34.1719 28.2035 34.7641 27.1339 35.8005 25.3327C36.819 23.5624 37.4822 22.4691 38.3233 21.0354C39.7093 18.6725 42.235 13.5392 43.7669 13.1791C46.2023 12.6067 51.6889 14.0346 53.4608 12.3574C54.2403 11.62 58.325 4.61967 58.5474 3.79698C54.6845 3.70855 50.7842 3.79059 46.9164 3.79059C40.6374 3.79059 41.2942 2.51242 37.9915 8.29695C36.4511 10.9946 26.876 26.9216 26.4504 28.2182H32.2582Z" fill="white"/>
<path fill-rule="evenodd" clip-rule="evenodd" d="M18.7995 14.824C21.3784 14.8253 21.6839 13.3682 23.5246 10.1972C24.2213 8.99659 26.9076 4.9169 27.1341 3.77271C25.384 3.82601 23.6162 3.79536 21.8643 3.79006C19.63 3.78314 19.3506 4.08782 18.1771 6.10766C17.5717 7.1496 13.3755 14.1715 13.1895 14.8195L18.7995 14.824Z" fill="#FF9600"/>
<path fill-rule="evenodd" clip-rule="evenodd" d="M42.6521 28.2437C44.1098 28.2346 44.6336 27.6956 45.402 26.476L50.7589 17.1669C49.0446 17.1112 47.302 17.1645 45.5834 17.1595C42.1958 17.1496 42.3918 18.6306 39.2626 23.7522C38.7973 24.514 38.4059 25.1255 37.9788 25.864L36.98 27.5637C36.7595 28.0394 36.8979 27.6738 36.7379 28.2408L42.6521 28.2437Z" fill="white"/>
<path d="M95.4687 3.98169V27.9938C95.4687 28.0765 95.4359 28.1558 95.3776 28.2143C95.319 28.2726 95.2398 28.3055 95.1572 28.3055H90.085C90.0178 28.3052 89.9526 28.2834 89.8988 28.2433C89.8451 28.2033 89.8055 28.1469 89.7861 28.0826L87.1287 19.1509C87.1065 19.0804 87.0598 19.0201 86.9971 18.9808C86.9345 18.9414 86.8598 18.9258 86.7867 18.9365C86.7134 18.9471 86.6463 18.9836 86.5976 19.039C86.5488 19.0947 86.5213 19.1658 86.52 19.2398V27.9938C86.5203 28.0347 86.5124 28.0752 86.4969 28.113C86.4815 28.1508 86.4589 28.1852 86.4299 28.2141C86.4011 28.2431 86.367 28.2661 86.3293 28.2818C86.2914 28.2973 86.2511 28.3055 86.2102 28.3055H81.4769C81.4359 28.3055 81.3954 28.2973 81.3576 28.2818C81.3199 28.2661 81.2855 28.2432 81.2565 28.2143C81.2276 28.1853 81.2047 28.151 81.189 28.1132C81.1733 28.0753 81.1653 28.0348 81.1653 27.9938V3.98169C81.1653 3.94078 81.1733 3.90042 81.1891 3.86268C81.2047 3.82493 81.2277 3.79083 81.2567 3.76191C81.2856 3.73317 81.3199 3.71034 81.3577 3.69495C81.3956 3.67945 81.4361 3.67158 81.4769 3.67182H86.2955C86.3608 3.67194 86.4245 3.69275 86.4776 3.73103C86.5305 3.76949 86.5701 3.82351 86.5908 3.88563L89.5053 12.8898C89.5288 12.9595 89.5763 13.0187 89.6393 13.0568C89.7022 13.0951 89.7766 13.1096 89.8494 13.0982C89.922 13.0866 89.9882 13.0497 90.0365 12.9941C90.0846 12.9383 90.1115 12.8673 90.1122 12.7937V3.98169C90.1119 3.9409 90.1199 3.90054 90.1353 3.8628C90.1507 3.82518 90.1736 3.79089 90.2024 3.76203C90.2312 3.73329 90.2655 3.71046 90.3032 3.69495C90.3408 3.67945 90.3811 3.67158 90.422 3.67182H95.1572C95.198 3.67158 95.2385 3.67945 95.2762 3.69495C95.3141 3.71034 95.3485 3.73317 95.3773 3.76191C95.4063 3.79083 95.4293 3.82493 95.4451 3.86268C95.4606 3.90042 95.4687 3.94078 95.4687 3.98169Z" fill="#FF9600"/>
<path d="M119.708 14.9398L114.671 11.4123C114.632 11.3845 114.6 11.3478 114.578 11.3051C114.556 11.2624 114.544 11.215 114.545 11.1669V9.57023C114.545 8.7585 114.472 8.23667 114.327 8.00467C114.245 7.88995 114.135 7.79855 114.007 7.73964C113.88 7.68079 113.739 7.6564 113.599 7.66898C113.432 7.66159 113.266 7.6998 113.119 7.77976C112.972 7.85978 112.849 7.97837 112.764 8.12296C112.575 8.42574 112.481 8.88371 112.48 9.49713C112.48 10.2869 112.586 10.8811 112.798 11.2801C113.011 11.679 113.587 12.1608 114.529 12.7256C117.252 14.349 118.968 15.6826 119.675 16.7262C120.382 17.7699 120.737 19.4512 120.738 21.7704C120.738 23.4542 120.541 24.6956 120.147 25.4946C119.754 26.2936 118.996 26.9632 117.873 27.5035C116.746 28.0381 115.437 28.3055 113.947 28.3055C112.31 28.3055 110.913 27.9941 109.755 27.3714C108.598 26.7486 107.839 25.9584 107.479 25.0006C107.104 23.99 106.944 23.2228 106.941 20.8955C106.941 19.5458 106.953 18.0081 106.995 16.3104C106.996 16.2578 107.011 16.2065 107.039 16.1617C107.066 16.1169 107.105 16.0802 107.151 16.0553C107.198 16.0305 107.249 16.0182 107.302 16.02C107.354 16.0217 107.405 16.0373 107.45 16.0652L112.487 19.2588C112.529 19.2857 112.564 19.3229 112.588 19.3671C112.612 19.4111 112.625 19.4607 112.625 19.511V22.2175C112.625 23.1046 112.705 23.6734 112.866 23.9274C113.027 24.1813 113.309 24.3065 113.715 24.3065C113.896 24.3168 114.076 24.2771 114.236 24.1923C114.396 24.1074 114.531 23.9805 114.624 23.8247C114.824 23.5024 114.923 23.0251 114.922 22.3933C114.922 21.0017 114.733 20.0907 114.356 19.6605C113.978 19.2304 113.024 18.5172 111.491 17.5211C109.969 16.5087 108.961 15.7736 108.467 15.3155C107.923 14.7816 107.504 14.1328 107.24 13.4161C106.915 12.6043 106.752 11.5717 106.752 10.3182C106.752 8.50682 106.983 7.18257 107.445 6.34532C107.906 5.50813 108.65 4.85286 109.676 4.3798C110.704 3.909 111.944 3.67295 113.397 3.67181C114.986 3.67181 116.341 3.92987 117.461 4.44586C118.582 4.96197 119.323 5.60955 119.684 6.38879C120.135 7.36466 120.243 8.14735 120.229 10.3894C120.217 12.1289 120.194 13.5883 120.173 14.705C120.172 14.7589 120.157 14.8115 120.128 14.8571C120.1 14.9027 120.059 14.9395 120.011 14.9637C119.963 14.9879 119.91 14.9984 119.856 14.9943C119.803 14.99 119.751 14.9712 119.708 14.9398Z" fill="white"/>
<path d="M136.946 18.011C136.946 20.3875 136.889 22.0684 136.774 23.0537C136.663 24.0567 136.288 25.0116 135.687 25.8191C135.086 26.6267 134.28 27.2576 133.355 27.6462C132.251 28.1052 131.064 28.329 129.87 28.3036C128.711 28.3218 127.559 28.1109 126.48 27.6828C125.544 27.3061 124.726 26.6845 124.109 25.882C123.493 25.0796 123.101 24.126 122.975 23.1199C122.86 22.1462 122.802 20.4419 122.802 18.0075V13.9663C122.802 11.591 122.86 9.91009 122.975 8.92348C123.085 7.92066 123.46 6.9659 124.062 6.15828C124.663 5.35067 125.468 4.71972 126.394 4.33115C127.497 3.87204 128.683 3.64827 129.877 3.67384C131.036 3.6553 132.188 3.86619 133.267 4.29466C134.203 4.67142 135.022 5.29337 135.638 6.09603C136.255 6.8987 136.647 7.85281 136.774 8.85927C136.889 9.833 136.946 11.5365 136.946 13.9698V18.011ZM130.836 10.2416C130.836 9.14267 130.778 8.43957 130.663 8.13227C130.548 7.82514 130.299 7.67161 129.915 7.67161C129.771 7.66493 129.628 7.69576 129.5 7.76087C129.372 7.82615 129.262 7.92347 129.182 8.04367C129.013 8.29296 128.928 9.0255 128.928 10.2416V21.2836C128.928 22.6551 128.985 23.5019 129.101 23.8241C129.216 24.1463 129.475 24.3069 129.877 24.3058C130.054 24.3235 130.231 24.2775 130.377 24.1758C130.524 24.0743 130.629 23.9237 130.675 23.7511C130.791 23.3802 130.848 22.4991 130.848 21.108L130.836 10.2416Z" fill="white"/>
<path d="M153.495 3.72578C153.575 3.72578 153.652 3.75757 153.708 3.81427C153.765 3.87103 153.797 3.94794 153.797 4.02808V19.7954C153.797 21.6169 153.738 22.8967 153.62 23.6348C153.456 24.4669 153.091 25.2466 152.559 25.907C151.962 26.6938 151.165 27.3049 150.25 27.6756C149.175 28.0987 148.027 28.3033 146.872 28.2769C145.569 28.3045 144.275 28.0638 143.07 27.5695C141.97 27.098 141.147 26.4789 140.603 25.7126C140.08 25.0044 139.748 24.1739 139.639 23.3006C139.54 22.454 139.49 20.6738 139.49 17.9598V4.02808C139.49 3.98831 139.498 3.94884 139.513 3.91211C139.528 3.87526 139.55 3.84193 139.578 3.81373C139.607 3.78564 139.64 3.76341 139.677 3.7482C139.713 3.73318 139.753 3.72542 139.793 3.72578H145.439C145.479 3.72542 145.519 3.73318 145.555 3.7482C145.592 3.76341 145.626 3.78564 145.654 3.81373C145.682 3.84193 145.704 3.87526 145.719 3.91211C145.734 3.94884 145.742 3.98831 145.742 4.02808V21.7549C145.742 22.8054 145.801 23.4762 145.919 23.7673C145.969 23.9068 146.064 24.0252 146.188 24.1047C146.313 24.1842 146.461 24.2199 146.608 24.2059C147.004 24.2059 147.261 24.0449 147.374 23.7232C147.487 23.4013 147.551 22.6426 147.551 21.4437V4.02808C147.551 3.98831 147.558 3.94884 147.573 3.91211C147.589 3.87526 147.611 3.84193 147.639 3.81373C147.667 3.78564 147.701 3.76341 147.737 3.7482C147.774 3.73318 147.814 3.72542 147.853 3.72578H153.495Z" fill="white"/>
<path d="M171.382 4.07953L167.895 14.6999C167.877 14.7589 167.877 14.8219 167.895 14.881L171.743 27.9051C171.756 27.9516 171.759 28.0006 171.749 28.0482C171.741 28.0959 171.722 28.1408 171.692 28.1796C171.664 28.2183 171.627 28.2498 171.584 28.2718C171.541 28.2935 171.494 28.3052 171.446 28.3055H165.524C165.455 28.3053 165.388 28.2819 165.334 28.2389C165.28 28.1958 165.242 28.1358 165.225 28.0681L163.314 20.2392C163.294 20.1668 163.249 20.104 163.188 20.0621C163.126 20.0203 163.051 20.0023 162.977 20.0113C162.903 20.0201 162.835 20.0557 162.785 20.1112C162.735 20.1668 162.707 20.2385 162.705 20.3135V27.994C162.705 28.0765 162.672 28.1558 162.614 28.2143C162.556 28.2726 162.477 28.3055 162.395 28.3055H156.649C156.566 28.3055 156.488 28.2726 156.429 28.2143C156.372 28.1558 156.339 28.0765 156.339 27.994V3.98168C156.339 3.9409 156.347 3.90042 156.362 3.86267C156.378 3.82505 156.401 3.79083 156.43 3.76203C156.459 3.73317 156.493 3.71045 156.53 3.69495C156.568 3.67945 156.608 3.6717 156.649 3.67194H162.395C162.436 3.6717 162.476 3.67945 162.514 3.69495C162.551 3.71045 162.585 3.73317 162.614 3.76203C162.643 3.79083 162.666 3.82505 162.681 3.86267C162.697 3.90042 162.705 3.9409 162.705 3.98168V11.1096C162.706 11.1836 162.733 11.2547 162.782 11.3103C162.83 11.3659 162.897 11.4022 162.97 11.413C163.043 11.4237 163.117 11.4079 163.179 11.3686C163.241 11.3293 163.288 11.2689 163.31 11.1984L165.47 3.89291C165.49 3.82899 165.529 3.77306 165.583 3.73329C165.636 3.69352 165.701 3.67206 165.767 3.67194H171.082C171.131 3.67093 171.18 3.68184 171.225 3.70372C171.27 3.72566 171.308 3.75786 171.336 3.79775C171.367 3.83763 171.385 3.88402 171.393 3.93304C171.401 3.98199 171.398 4.03219 171.382 4.07953Z" fill="white"/>
<path d="M104.049 28.3366H98.3279C98.1524 28.3366 98.0101 28.1943 98.0101 28.0187V12.0735C98.0101 11.9469 98.0853 11.8323 98.2015 11.7819L103.923 9.29939C104.133 9.20828 104.367 9.36218 104.367 9.5909V28.0187C104.367 28.1943 104.225 28.3366 104.049 28.3366Z" fill="#FF9600"/>
<path d="M98.3279 3.70306H104.049C104.225 3.70306 104.367 3.84539 104.367 4.02098V7.75306C104.367 7.88 104.292 7.99478 104.175 8.04498L98.4536 10.5051C98.2437 10.5954 98.0101 10.4415 98.0101 10.2132V4.02098C98.0101 3.84539 98.1524 3.70306 98.3279 3.70306Z" fill="white"/>
<path d="M78.3172 3.72578C78.357 3.72542 78.3965 3.73318 78.4332 3.7482C78.4701 3.76341 78.5034 3.78564 78.5315 3.81373C78.5597 3.84193 78.5819 3.87526 78.597 3.91211C78.6121 3.94884 78.6199 3.98831 78.6196 4.02808V19.7954C78.6196 21.6169 78.5606 22.8967 78.4427 23.6348C78.2788 24.4671 77.9147 25.2471 77.3817 25.907C76.7856 26.6942 75.9875 27.3054 75.0722 27.6756C74.0011 28.094 72.8579 28.2953 71.7085 28.268C70.406 28.2957 69.1117 28.0549 67.9065 27.5606C66.8064 27.089 65.9813 26.4703 65.4306 25.7038C64.9077 24.9959 64.5757 24.1651 64.4668 23.2917C64.3679 22.4452 64.3182 20.6649 64.3182 17.9511V4.02808C64.3181 3.98831 64.3258 3.94884 64.3408 3.91211C64.356 3.87526 64.3782 3.84193 64.4063 3.81373C64.4344 3.78564 64.468 3.76341 64.5047 3.7482C64.5415 3.73318 64.581 3.72542 64.6207 3.72578H70.2673C70.3071 3.72542 70.3465 3.73318 70.3834 3.7482C70.4201 3.76341 70.4535 3.78564 70.4816 3.81373C70.5098 3.84193 70.532 3.87526 70.5473 3.91211C70.5623 3.94884 70.5699 3.98831 70.5696 4.02808V21.7549C70.5696 22.8054 70.6286 23.4762 70.7465 23.7673C70.7966 23.9068 70.8915 24.0252 71.0164 24.1047C71.1411 24.1842 71.2889 24.2199 71.4363 24.2059C71.8323 24.2059 72.0888 24.0449 72.202 23.7232C72.3151 23.4013 72.3789 22.6426 72.3789 21.4437V4.02808C72.3785 3.98831 72.3861 3.94884 72.4014 3.91211C72.4165 3.87526 72.4387 3.84193 72.4669 3.81373C72.495 3.78564 72.5284 3.76341 72.5652 3.7482C72.6019 3.73318 72.6414 3.72542 72.6812 3.72578H78.3172Z" fill="#FF9600"/>
</svg>
