<svg width="32" height="32" viewBox="0 0 32 32" fill="none" xmlns="http://www.w3.org/2000/svg">
<path d="M4.63157 11.8327C5.72389 11.8327 6.60205 12.206 7.26639 12.9531C7.93076 13.7002 8.26317 14.6877 8.26317 15.9161C8.26317 17.1444 7.92953 18.1254 7.26311 18.8753C6.59627 19.6252 5.71896 19.9999 4.63199 19.9999C3.54503 19.9999 2.67307 19.6238 2.00417 18.8712C1.33445 18.119 1 17.1338 1 15.9161C1 14.6984 1.33321 13.7067 2.00005 12.9573C2.6669 12.2074 3.54421 11.8327 4.63157 11.8327ZM4.63157 13.4677C3.79669 13.4677 3.17392 13.8383 2.76286 14.5803C2.55692 14.9527 2.45436 15.3978 2.45436 15.9161C2.45436 16.3895 2.54663 16.8137 2.73115 17.1884C2.92474 17.5821 3.20399 17.8809 3.5681 18.0861C3.89924 18.2718 4.25348 18.3649 4.63199 18.3649C5.46646 18.3649 6.08964 17.993 6.5007 17.2487C6.70665 16.879 6.8092 16.4353 6.8092 15.9165C6.8092 15.1402 6.5872 14.5316 6.14236 14.0902C5.72594 13.6757 5.22263 13.4682 4.63157 13.4682V13.4677Z" fill="#333333"/>
<path d="M29.9324 17.6789L30.9927 18.8712C30.5671 19.3603 30.0306 19.6929 29.3827 19.8684C29.0659 19.9559 28.7265 19.9999 28.3648 19.9999C27.282 19.9999 26.4063 19.6238 25.737 18.8712C25.0681 18.119 24.7336 17.1338 24.7336 15.9161C24.7336 14.6984 25.0669 13.7067 25.7337 12.9573C26.4001 12.2074 27.2774 11.8327 28.3648 11.8327C29.4523 11.8327 30.3356 12.206 31 12.9531L29.9324 14.1537C29.5165 13.6961 28.9938 13.4677 28.3648 13.4677C27.5304 13.4677 26.9076 13.8383 26.4961 14.5803C26.2906 14.9527 26.1876 15.3978 26.1876 15.9161C26.1876 16.3895 26.2803 16.8137 26.4644 17.1884C26.6584 17.5821 26.9372 17.8809 27.3013 18.0861C27.6325 18.2718 27.9871 18.3649 28.3652 18.3649C28.9942 18.3649 29.5168 18.1366 29.9329 17.6789H29.9324Z" fill="#333333"/>
<path d="M19.6923 13.2937C19.8014 13.2937 19.89 13.1941 19.89 13.0714C19.89 12.9486 19.8014 12.8495 19.6923 12.8495C19.5831 12.8495 19.4946 12.9491 19.4946 13.0714C19.4946 13.1936 19.5831 13.2937 19.6923 13.2937Z" fill="#333333"/>
<path d="M30.815 18.2018C30.815 18.251 30.8926 18.2519 30.8934 18.2018C30.8934 18.1768 30.8765 18.1577 30.8542 18.1577C30.8319 18.1577 30.815 18.1768 30.815 18.2018Z" fill="url(#paint0_linear_30_7)"/>
<path d="M23.0253 12.9531C22.5957 12.4705 22.0767 12.1449 21.4692 11.974L21.0972 12.3927C21.1767 12.6011 21.2212 12.8304 21.2212 13.0712C21.2212 13.2556 21.1953 13.4335 21.1471 13.6002C21.4239 13.703 21.6755 13.8651 21.9012 14.0898C22.3457 14.5312 22.5677 15.1398 22.5677 15.9161C22.5677 16.4349 22.4651 16.8786 22.2591 17.2482C21.8481 17.9926 21.2253 18.3645 20.3904 18.3645H18.2128V16.2371C18.0485 16.6989 17.6473 17.0259 17.179 17.0259C17.0303 17.0259 16.8886 16.9925 16.7589 16.9332V20H20.3904C21.4778 20 22.3551 19.6253 23.0216 18.8754C23.6888 18.1255 24.0216 17.1394 24.0216 15.9161C24.0216 14.6928 23.6896 13.7002 23.0257 12.9531H23.0253Z" fill="#333333"/>
<path d="M20.7528 13.5462L19.7861 13.0825C19.733 13.057 19.6786 13.1177 19.7017 13.1775L20.114 14.2646C20.1243 14.2919 20.1486 14.3099 20.1762 14.3086C20.203 14.3072 20.2264 14.2877 20.2347 14.259L20.3619 13.825L20.7479 13.6819C20.7734 13.6726 20.7911 13.6462 20.792 13.6161C20.7932 13.586 20.7775 13.5582 20.7528 13.5462ZM20.2907 13.6986C20.2713 13.706 20.2561 13.7226 20.2495 13.7449L20.1655 14.0311L19.8829 13.2863L20.5452 13.6041L20.2907 13.6986Z" fill="#333333"/>
<path d="M19.6927 12.2705C19.3002 12.2705 18.9805 12.63 18.9805 13.0714C18.9805 13.5128 19.3002 13.8722 19.6927 13.8722C19.7442 13.8722 19.7862 13.825 19.7862 13.7671C19.7862 13.7092 19.7442 13.6619 19.6927 13.6619C19.4031 13.6619 19.1675 13.397 19.1675 13.0714C19.1675 12.7458 19.4031 12.4808 19.6927 12.4808C19.9822 12.4808 20.2178 12.7458 20.2178 13.0714C20.2178 13.1293 20.2599 13.1765 20.3113 13.1765C20.3628 13.1765 20.4048 13.1293 20.4048 13.0714C20.4048 12.63 20.0852 12.2705 19.6927 12.2705Z" fill="#333333"/>
<path d="M20.4895 12.1746C20.2758 11.9342 19.9924 11.8018 19.6922 11.8018C19.3919 11.8018 19.1085 11.9342 18.8948 12.1746C18.4553 12.6688 18.4553 13.4734 18.8948 13.9681C19.1085 14.2084 19.3919 14.3409 19.6922 14.3409C19.7436 14.3409 19.7856 14.2937 19.7856 14.2358C19.7856 14.1779 19.7436 14.1306 19.6922 14.1306C19.1728 14.1306 18.7502 13.6554 18.7502 13.0713C18.7502 12.4873 19.1728 12.012 19.6922 12.012C20.2115 12.012 20.6341 12.4873 20.6341 13.0713C20.6341 13.1292 20.6761 13.1765 20.7276 13.1765C20.7791 13.1765 20.8211 13.1292 20.8211 13.0713C20.8211 12.7337 20.7033 12.415 20.4895 12.1746Z" fill="#333333"/>
<path d="M8.70296 20H10.1569V14.7693L13.0611 17.3821V15.7531L8.70296 11.8328V20Z" fill="#333333"/>
<path d="M18.1628 13.0713C18.1628 12.8305 18.2069 12.6012 18.2868 12.3928L18.0331 12.107C17.7633 12.1375 17.5112 12.0268 17.3296 11.8328H14.0988V18.6915L15.5527 19.9996V13.4678H18.2044C18.1777 13.3404 18.1632 13.2075 18.1632 13.0713H18.1628Z" fill="#333333"/>
<path d="M21.4404 14.5455C21.3597 14.5455 21.2847 14.5719 21.2196 14.615L20.8481 14.1972C20.8003 14.2593 20.7488 14.3172 20.6936 14.3709L21.0652 14.7887C21.0264 14.8619 21.003 14.9462 21.003 15.037C21.003 15.3079 21.199 15.5284 21.44 15.5284C21.6809 15.5284 21.877 15.3079 21.877 15.037C21.877 14.766 21.6809 14.5455 21.44 14.5455H21.4404ZM21.4404 15.2825C21.3197 15.2825 21.2221 15.1722 21.2221 15.037C21.2221 14.9017 21.3201 14.7915 21.4404 14.7915C21.5607 14.7915 21.6587 14.9017 21.6587 15.037C21.6587 15.1722 21.5607 15.2825 21.4404 15.2825Z" fill="#333333"/>
<path d="M21.877 10C21.5153 10 21.2217 10.3307 21.2217 10.7369C21.2217 10.8643 21.2505 10.9838 21.3012 11.0885L20.6936 11.7717C20.7488 11.8254 20.8003 11.8833 20.8481 11.9454L21.4379 11.2821C21.5541 11.4007 21.7081 11.4738 21.8774 11.4738C22.239 11.4738 22.5327 11.1431 22.5327 10.7369C22.5327 10.3307 22.2386 10 21.8774 10H21.877ZM21.877 11.2284C21.636 11.2284 21.44 11.0079 21.44 10.7369C21.44 10.466 21.636 10.2455 21.877 10.2455C22.1179 10.2455 22.314 10.466 22.314 10.7369C22.314 11.0079 22.1179 11.2284 21.877 11.2284Z" fill="#333333"/>
<path d="M17.9445 11.5969C18.0252 11.5969 18.1002 11.5705 18.1652 11.5275L18.5368 11.9452C18.5845 11.8832 18.636 11.8253 18.6912 11.7716L18.3197 11.3538C18.358 11.2806 18.3815 11.1967 18.3815 11.1055C18.3815 10.8345 18.1854 10.6141 17.9445 10.6141C17.7035 10.6141 17.5075 10.8345 17.5075 11.1055C17.5075 11.3765 17.7035 11.5969 17.9445 11.5969ZM17.9445 10.86C18.0652 10.86 18.1628 10.9703 18.1628 11.1055C18.1628 11.2407 18.0648 11.351 17.9445 11.351C17.8242 11.351 17.7262 11.2407 17.7262 11.1055C17.7262 10.9703 17.8242 10.86 17.9445 10.86Z" fill="#333333"/>
<path d="M18.6908 14.3709C18.6356 14.3172 18.5841 14.2593 18.5364 14.1972L17.6191 15.2287C17.5025 15.1101 17.3489 15.037 17.1796 15.037C16.818 15.037 16.5243 15.3677 16.5243 15.7739C16.5243 16.1801 16.8184 16.5108 17.1796 16.5108C17.5408 16.5108 17.8349 16.1801 17.8349 15.7739C17.8349 15.6465 17.8061 15.527 17.7554 15.4223L18.6908 14.3704V14.3709ZM17.1792 16.2653C16.9383 16.2653 16.7422 16.0449 16.7422 15.7739C16.7422 15.5029 16.9383 15.2825 17.1792 15.2825C17.4202 15.2825 17.6162 15.5029 17.6162 15.7739C17.6162 16.0449 17.4202 16.2653 17.1792 16.2653Z" fill="#333333"/>
<path d="M19.8013 15.2937V14.7866C19.765 14.7893 19.7288 14.7912 19.6917 14.7912C19.6547 14.7912 19.6188 14.7893 19.5826 14.7866V15.2937C19.2733 15.3526 19.0364 15.655 19.0364 16.02C19.0364 16.4267 19.3305 16.7569 19.6917 16.7569C20.053 16.7569 20.347 16.4262 20.347 16.02C20.347 15.6555 20.1102 15.3526 19.8009 15.2937H19.8013ZM19.6917 16.5114C19.4508 16.5114 19.2547 16.291 19.2547 16.02C19.2547 15.749 19.4508 15.5286 19.6917 15.5286C19.9327 15.5286 20.1287 15.749 20.1287 16.02C20.1287 16.291 19.9327 16.5114 19.6917 16.5114Z" fill="#333333"/>
<defs>
<linearGradient id="paint0_linear_30_7" x1="30.7075" y1="18.162" x2="30.9643" y2="18.2124" gradientUnits="userSpaceOnUse">
<stop stop-color="#1C75BC"/>
<stop offset="1" stop-color="#00AEEF"/>
</linearGradient>
</defs>
</svg>
