<svg width="24" height="24" viewBox="0 0 24 24" fill="none" xmlns="http://www.w3.org/2000/svg">
<g id="simple-icons:flipkart">
<path id="Vector" d="M4.77052 2.17618C4.6699 2.17729 4.57021 2.19549 4.47573 2.23V1.88235C4.47573 1.39618 4.87321 1 5.36099 1H18.3451C18.8329 1 19.2304 1.39618 19.2304 1.88235V2.17618H4.77052ZM20.1156 4.23559H3.88526C3.39748 4.23559 3 4.63176 3 5.11794V21.2941C3 21.7803 3.39748 22.1765 3.88526 22.1765H10.3477L11.3197 17.1956H9.33669C9.29155 17.1956 4.77052 16.9829 4.77052 16.9829L8.87724 16.6944L8.80819 16.3715L7.05715 16.12L8.72321 15.9806L8.61344 15.5844L5.89126 15.1724C5.89126 15.1724 8.84892 14.8432 8.89406 14.8432H11.7552L11.9739 13.6688C12.2297 12.2429 12.8105 11.1921 13.7205 10.4103C14.635 9.62323 15.7956 9.235 17.2058 9.235C17.775 9.235 18.138 9.36823 18.2955 9.64353C18.4 9.80765 18.4735 10.0988 18.5425 10.4015C18.608 10.7121 18.6665 10.9935 18.6266 11.1982C18.5762 11.5026 18.2185 11.6085 17.567 11.6085H17.343C16.1682 11.6085 15.4538 12.2818 15.2139 13.6468L14.9988 14.8424H16.3621C16.8703 14.8424 17.0535 15.1971 16.9128 15.9947C16.7623 16.825 16.4356 17.1947 15.9292 17.1947H14.5677L13.5975 22.1765H20.1147C20.6025 22.1765 21 21.7803 21 21.2941V5.11794C21 4.88408 20.9069 4.65978 20.741 4.49433C20.5752 4.32889 20.3503 4.23582 20.1156 4.23559ZM19.5252 3.05853C19.5249 2.98067 19.4938 2.90607 19.4386 2.85102C19.3833 2.79597 19.3085 2.76494 19.2304 2.76471H4.77052C4.69241 2.76494 4.61756 2.79597 4.56233 2.85102C4.5071 2.90607 4.47596 2.98067 4.47573 3.05853V3.64706H19.5252V3.05853Z" fill="#333333"/>
</g>
</svg>
